SplineFontDB: 3.2
FontName: LucijaTomek
FullName: LucijaTomek
FamilyName: LucijaTomek
Weight: Regular
Copyright: Copyright (c) 2024, tomek
UComments: "2024-3-14: Created with FontForge (http://fontforge.org)"
Version: 001.000
ItalicAngle: 0
UnderlinePosition: -100
UnderlineWidth: 50
Ascent: 800
Descent: 200
InvalidEm: 0
LayerCount: 2
Layer: 0 0 "Stra+AX4A-nji" 1
Layer: 1 0 "Prednji" 0
XUID: [1021 707 -474459550 29449]
StyleMap: 0x0000
FSType: 0
OS2Version: 0
OS2_WeightWidthSlopeOnly: 0
OS2_UseTypoMetrics: 1
CreationTime: 1710456108
ModificationTime: 1712867442
OS2TypoAscent: 0
OS2TypoAOffset: 1
OS2TypoDescent: 0
OS2TypoDOffset: 1
OS2TypoLinegap: 90
OS2WinAscent: 0
OS2WinAOffset: 1
OS2WinDescent: 0
OS2WinDOffset: 1
HheadAscent: 0
HheadAOffset: 1
HheadDescent: 0
HheadDOffset: 1
OS2Vendor: 'PfEd'
MarkAttachClasses: 1
DEI: 91125
Encoding: iso8859-2
UnicodeInterp: none
NameList: AGL For New Fonts
DisplaySize: -48
AntiAlias: 1
FitToEm: 0
WinInfo: 0 38 13
BeginPrivate: 0
EndPrivate
BeginChars: 256 33

StartChar: j
Encoding: 106 106 1
Width: 172
Flags: HW
LayerCount: 2
Fore
SplineSet
70 416 m 4
 70 390 91 369 116 369 c 4
 141 369 162 390 162 416 c 4
 162 442 141 463 116 463 c 4
 91 463 70 442 70 416 c 4
-35 -32 m 5
 -15.5526337864 -86.9102104855 3.74932679379 -108.377125274 20.5771410082 -108.377125274 c 0
 47.8796483759 -108.377125274 68.669246343 -51.867909385 73 10 c 5
 75.3832291626 25.8881944173 86.6016735897 171.149183779 86.6016735897 256.275883999 c 0
 86.6016735897 278.306357193 85.8503125122 296.309305485 84 307 c 5
 84 307 84 339 75 349 c 4
 75 349 91.7693833036 341.123471479 111.60427102 341.123471479 c 0
 131.119241192 341.123471479 153.601626016 348.74796748 166 379 c 5
 155.127563219 303.532497638 150.799618151 221.111472832 146.999417863 148.740775605 c 0
 144.857674666 107.953596852 142.883559162 70.3587058857 140 39 c 5
 128.513988201 -79.6887885936 106.95010739 -122.335474648 97.2315625636 -141.555750153 c 0
 96.7966668439 -142.415839363 96.3854911505 -143.229017699 96 -144 c 5
 85.5823643888 -170.695191254 45.0654070878 -199.08611894 6.19193886578 -199.08611894 c 0
 -14.6386865058 -199.08611894 -34.997395705 -190.933866458 -50 -170 c 4
 -50 -170 -69.4873899677 -146.369284275 -69.4873899677 -110.754200866 c 0
 -69.4873899677 -107.594421872 -69.3339992217 -104.340310539 -69 -101 c 4
 -67 -81 -57 -62 -35 -32 c 5
EndSplineSet
Validated: 9
EndChar

StartChar: a
Encoding: 97 97 2
Width: 333
Flags: HW
LayerCount: 2
Fore
SplineSet
218 161 m 5
 183 200 133 198 89 156 c 5
 71 136 80.89453125 96.5107421875 98 77 c 5
 113 52 197 40 225 94 c 5
 231 120 233.666992188 138.999023438 218 161 c 5
89 291 m 5
 87 276 38.8388671875 268.19921875 10 262 c 5
 20 390.215820312 267 412.150390625 312 285 c 5
 333 211 299 65 326 0 c 5
 242 0 l 21
 241.53125 8.720703125 241.810546875 12.0302734375 238 36 c 5
 197 -2 74 -19 35 31 c 5
 -6 69 -5 134 12 159 c 5
 50 205 123 240 234 227 c 5
 288.307617188 338.8046875 122.193359375 367.848632812 89 291 c 5
EndSplineSet
Validated: 33
EndChar

StartChar: i
Encoding: 105 105 3
Width: 153
Flags: HW
LayerCount: 2
Fore
SplineSet
31 409 m 4
 31 435 52 456 77 456 c 4
 102 456 123 435 123 409 c 4
 123 383 102 362 77 362 c 4
 52 362 31 383 31 409 c 4
7 0 m 5
 145 0 l 5
 131.075195312 15.072265625 124 26 125 51 c 5
 124 371 l 5
 99 310 35 337 35 337 c 4
 44 327 43 306 43 306 c 5
 23 48 l 5
 22 31 17 8 7 0 c 5
EndSplineSet
Validated: 41
EndChar

StartChar: e
Encoding: 101 101 4
Width: 371
Flags: HW
LayerCount: 2
Fore
SplineSet
125 240 m 1
 153.98828125 359.076171875 221.493164062 385.529296875 233 240 c 9
 125 240 l 1
117 216 m 1
 349 217 l 1
 345.364257812 291.758789062 307 353 236 365 c 5
 17 421 -112 -29 234 2 c 1
 309 12 341 57 353 131 c 1
 281.857421875 38.814453125 65.828125 -26.19921875 117 216 c 1
EndSplineSet
Validated: 41
EndChar

StartChar: c
Encoding: 99 99 5
Width: 342
Flags: HW
LayerCount: 2
Fore
SplineSet
336 102 m 5
 281.575195312 -52.2392578125 70 -8 16 85 c 5
 -16 158 10 233 50 291 c 5
 117 393 229 387 326 330 c 5
 357 314 310.6015625 274.532226562 300 248 c 5
 239.038085938 317.216796875 125.319335938 433.231445312 96 183 c 5
 95 87 129 82 182 59 c 5
 231 45 266 78 336 102 c 5
EndSplineSet
Validated: 33
EndChar

StartChar: l
Encoding: 108 108 6
Width: 195
Flags: HW
LayerCount: 2
Fore
SplineSet
32 12 m 5
 48.1803745031 -7.21153509674 191 -12 192 67 c 5
 117 34 125 139 125 139 c 5
 124 660 l 5
 124 660 40 600 43 590 c 4
 43 585 l 5
 23 48 l 5
 22 31 21 25 32 12 c 5
EndSplineSet
Validated: 41
EndChar

StartChar: m
Encoding: 109 109 7
Width: 544
Flags: HW
LayerCount: 2
Fore
SplineSet
8 314 m 1
 27.427734375 303.459960938 17.330078125 297.236328125 21 289 c 1
 24 31 l 1
 24 19 17 6 11 0 c 0
 114 0 l 0
 107 5 101 18 100 31 c 1
 100 265 l 1
 88.5760340651 365.70541525 241.402997039 329.425611837 229 269 c 0
 228.597812197 267.040599058 228 0 228 0 c 0
 325 0 l 0
 318 3 308 17 308 31 c 1
 305 267 l 5
 299 363 438.183044639 334.678611488 435 256 c 5
 437 0 l 0
 530 0 l 0
 526 3 516 19 516 34 c 1
 516 255 l 1
 520 377 367 390.985351562 278 334 c 1
 215.122070312 392.084960938 142 361 89 327 c 1
 66 370 l 1
 8 314 l 1
EndSplineSet
Validated: 41
EndChar

StartChar: scedilla
Encoding: 186 351 8
Width: 1236
Flags: HW
LayerCount: 2
Fore
SplineSet
642 324 m 5
 661.427734375 313.459960938 651.330078125 307.236328125 655 299 c 5
 658 41 l 5
 658 29 651 16 645 10 c 4
 738 10 l 4
 731 15 725 28 724 41 c 5
 724 275 l 5
 722 289 859 416 863 279 c 4
 863.05859375 277.000976562 862 10 862 10 c 4
 951 10 l 4
 944 13 935 28 935 42 c 5
 932 278 l 5
 927 294 1083 427 1079 285 c 5
 1080 10 l 4
 1164 10 l 4
 1160 13 1150 29 1150 44 c 5
 1150 324 l 5
 1155 380.897460938 1001 400.985351562 912 344 c 5
 849.122070312 402.084960938 776 371 723 337 c 5
 700 380 l 5
 642 324 l 5
EndSplineSet
Validated: 41
EndChar

StartChar: k
Encoding: 107 107 9
Width: 383
Flags: HW
LayerCount: 2
Fore
SplineSet
246 0 m 1
 246 0 381.448242188 0.833984375 382 0 c 0
 384.251953125 -3.404296875 337 19 328 45 c 0
 325.967773438 50.8720703125 213 239 160 235 c 1
 160 235 236 371 297 401 c 1
 203 397 l 1
 217.654296875 382.833007812 125 255 125 255 c 1
 125 182 l 0
 125 182 191 127 246 0 c 1
7 0 m 1
 145 0 l 1
 131.075195312 15.072265625 124 26 125 51 c 1
 125.442834138 326 l 0
 128 664 l 5
 38 616 l 0
 47 606 43 586 43 586 c 1
 23 48 l 1
 22 31 17 8 7 0 c 1
EndSplineSet
Validated: 37
EndChar

StartChar: T
Encoding: 84 84 10
Width: 378
Flags: HW
LayerCount: 2
Fore
SplineSet
3 650 m 5
 404 650 l 1
 404 566 l 1
 367 583 243 615 243 584 c 1
 253 66 l 1
 253 66 269 14 287 0 c 0
 119 0 l 0
 141 16 153 67 153 67 c 1
 164 583 l 1
 162 614 41.4775390625 583.510742188 3 566 c 1
 3 650 l 5
EndSplineSet
Validated: 33
EndChar

StartChar: u
Encoding: 117 117 11
Width: 333
Flags: HW
LayerCount: 2
Fore
SplineSet
87 370 m 1
 79.5830078125 347.620117188 70 165 73 159 c 1
 75 138 77 124 78.8173828125 113 c 1
 85.2119140625 66.08203125 208.79296875 -9.1416015625 233 188 c 1
 233 188 251 360 238 370 c 1
 328 370 l 1
 306 352 296 12 333 0 c 1
 249 0 l 1
 248.53125 8.720703125 248.810546875 17.0302734375 245 41 c 1
 214 4.3935546875 67 -22.4990234375 28 30 c 1
 -12.453125 64.9853515625 2.3212890625 132.723632812 4 167 c 1
 4 167 22 354 0 371 c 1
 87 370 l 1
EndSplineSet
Validated: 33
EndChar

StartChar: L
Encoding: 76 76 12
Width: 398
Flags: HW
LayerCount: 2
Fore
SplineSet
9 650 m 1
 27.9677734375 641.245117188 22.162109375 115 22.162109375 115 c 1
 22.162109375 115 24 23 6 0 c 0
 5.9609375 -0.05078125 378 -0.12890625 378 0 c 0
 378 0 385.2109375 120.686523438 378 117 c 0
 273.662109375 63.6552734375 120 -9 120 118 c 1
 118 569 l 0
 118 569 114 636 134 650 c 1
 9 650 l 1
EndSplineSet
Validated: 41
EndChar

StartChar: o
Encoding: 111 111 13
Width: 378
Flags: W
HStem: 0 32<152.532 220.468> 350 24<157.528 215.472>
VStem: 2 103<100.433 272.77> 267 105<100.433 272.77>
LayerCount: 2
Fore
SplineSet
105 191 m 0
 105 103 141 32 186 32 c 0
 231 32 267 103 267 191 c 0
 267 279 231 350 186 350 c 0
 141 350 105 279 105 191 c 0
2 187 m 0
 2 290 85 374 187 374 c 0
 289 374 372 290 372 187 c 0
 372 84 289 0 187 0 c 0
 85 0 2 84 2 187 c 0
EndSplineSet
Validated: 1
EndChar

StartChar: ccaron
Encoding: 232 269 14
Width: 342
Flags: HW
LayerCount: 2
Fore
SplineSet
150 384 m 5
 167 390 220 390 239 385 c 5
 243 384 267 418 273 428 c 4
 275.572478777 432.287464629 291 455 294 463 c 5
 294 463 250 470 226 446 c 5
 194 414 l 5
 158 448 l 5
 142 468 97 463 97 463 c 5
 101 453 110.858515419 435.926055064 113 432 c 4
 119 421 145.802770421 383.597202111 150 384 c 5
336 102 m 1
 281.575195312 -52.2392578125 70 -8 16 85 c 1
 -16 158 10 233 50 291 c 1
 117 393 229 387 326 330 c 1
 357 314 310.6015625 274.532226562 300 248 c 1
 239.038085938 317.216796875 125.319335938 433.231445312 96 183 c 1
 95 87 129 82 182 59 c 1
 231 45 266 78 336 102 c 1
EndSplineSet
Validated: 41
EndChar

StartChar: cacute
Encoding: 230 263 15
Width: 342
Flags: HW
LayerCount: 2
Fore
SplineSet
159 388 m 5
 162 388.922851562 181.76171875 394.873046875 205 388 c 5
 217.565429688 390.737304688 231.000922352 413.999385167 237 423 c 4
 238.465820312 425.19921875 248 447 253 463 c 5
 235 454 204 451 200 448 c 5
 185.110351562 440.234375 175 430 171 426 c 5
 164 418 l 5
 164.434570312 418.465820312 160 412 159 410 c 5
 157 407 155 403 154 400 c 4
 153.552734375 398.658203125 151 390 159 388 c 5
336 102 m 1
 281.575195312 -52.2392578125 70 -8 16 85 c 1
 -16 158 10 233 50 291 c 1
 117 393 229 387 326 330 c 1
 357 314 310.6015625 274.532226562 300 248 c 1
 239.038085938 317.216796875 125.319335938 433.231445312 96 183 c 1
 95 87 129 82 182 59 c 1
 231 45 266 78 336 102 c 1
EndSplineSet
Validated: 41
EndChar

StartChar: C
Encoding: 67 67 16
Width: 503
Flags: HW
LayerCount: 2
Fore
SplineSet
120 572 m 5
 237 709 446.48046875 616.291015625 501 559 c 5
 506 528 472.169921875 489.333007812 453 459 c 5
 420.254446455 529.974280935 193.937226893 726.595226044 148 458 c 5
 112.243244427 278.566026382 109 179 175 120 c 5
 368.936523438 45.234375 399.139648438 167.51953125 496 204 c 5
 530 2 171 -64 70 66 c 5
 -29 158 -30 406 120 572 c 5
EndSplineSet
Validated: 33
EndChar

StartChar: Cacute
Encoding: 198 262 17
Width: 503
Flags: HW
LayerCount: 2
Fore
SplineSet
246 658 m 1
 249 658.922851562 282.76171875 666.873046875 306 660 c 1
 318.565429688 662.737304688 346.000976562 702.999023438 352 712 c 0
 353.465820312 714.19921875 363 736 368 752 c 5
 350 743 322 741 315 737 c 1
 300.110351562 729.234375 262 700 258 696 c 1
 251 688 l 1
 251.434570312 688.465820312 247 682 246 680 c 1
 244 677 242 673 241 670 c 0
 240.552734375 668.658203125 238 660 246 658 c 1
120 572 m 1
 237 709 446.48046875 616.291015625 501 559 c 1
 506 528 472.169921875 489.333007812 453 459 c 1
 420.254446455 529.974280935 193.937226893 726.595226044 148 458 c 1
 112.243244427 278.566026382 109 179 175 120 c 1
 368.936523438 45.234375 399.139648438 167.51953125 496 204 c 1
 530 2 171 -64 70 66 c 1
 -29 158 -30 406 120 572 c 1
EndSplineSet
Validated: 41
EndChar

StartChar: Ccaron
Encoding: 200 268 18
Width: 503
Flags: HW
LayerCount: 2
Fore
SplineSet
220 652 m 5
 234.7421875 661.80078125 316.950195312 663.133789062 339 653 c 1
 343 652 368 701 374 711 c 0
 376.572265625 715.287109375 392 744 395 752 c 1
 395 752 347 759 323 735 c 1
 282 697 l 1
 229 737 l 5
 210 757 168 752 168 752 c 5
 172 742 181.858398438 724.92578125 184 721 c 4
 190 710 215.802734375 651.59765625 220 652 c 5
120 572 m 1
 237 709 446.48046875 616.291015625 501 559 c 1
 506 528 472.169921875 489.333007812 453 459 c 1
 420.254446455 529.974280935 193.937226893 726.595226044 148 458 c 1
 112.243244427 278.566026382 109 179 175 120 c 1
 368.936523438 45.234375 399.139648438 167.51953125 496 204 c 1
 530 2 171 -64 70 66 c 1
 -29 158 -30 406 120 572 c 1
EndSplineSet
Validated: 41
EndChar

StartChar: S
Encoding: 83 83 19
Width: 444
Flags: HW
LayerCount: 2
Fore
SplineSet
388 481 m 5
 246.759765625 582.9609375 140.735351562 664.860351562 94 521 c 5
 78 465 85 437 110 414 c 5
 204 358 247 372 309 346 c 5
 446 287 449 140 420 92 c 5
 315 -67 71 9 15 98 c 5
 5 107 8 164 8 164 c 4
 10 237 l 5
 10 237 96 145 116 130 c 5
 262.904296875 26.947265625 350.096679688 59.2998046875 345 178 c 5
 339.379882812 236.1875 314 258 238 298 c 5
 170 336 114 308 32 388 c 5
 10 416 -3 467 14 531 c 5
 66.025390625 719.72265625 363.395507812 641.017578125 384 594 c 5
 394 576 388 481 388 481 c 5
EndSplineSet
Validated: 33
EndChar

StartChar: s
Encoding: 115 115 20
Width: 277
Flags: HW
LayerCount: 2
Fore
SplineSet
255 258 m 5
 240.691480647 278.751350784 89 424.521484375 91 281 c 5
 91 271 98 261 105 255 c 5
 125 236 160 215 175 207 c 5
 250 168 284 115 269 73 c 5
 216 -46 12.7861328125 5.939453125 6 43 c 5
 1 48 3 100 3 100 c 4
 5 141 l 5
 5 141 24 104 44 89 c 5
 125.50390625 8.037109375 187.677734375 46.51953125 183 104 c 5
 183 138 137 171 114 183 c 5
 86 200 46 211 28 230 c 5
 17 243 11 260 12 282 c 5
 21.2866148537 416.755322806 247.485249531 361.525851034 253 343 c 5
 258 336 255 258 255 258 c 5
EndSplineSet
Validated: 33
EndChar

StartChar: Scaron
Encoding: 169 352 21
Width: 444
Flags: HW
LayerCount: 2
Fore
SplineSet
141 656 m 5
 155.7421875 665.80078125 237.950195312 667.133789062 260 657 c 5
 264 656 289 705 295 715 c 4
 297.572265625 719.287109375 313 748 316 756 c 5
 316 756 268 763 244 739 c 5
 203 701 l 5
 150 741 l 5
 131 761 89 756 89 756 c 5
 93 746 102.858398438 728.92578125 105 725 c 4
 111 714 136.802734375 655.59765625 141 656 c 5
388 481 m 1
 246.759765625 582.9609375 140.735351562 664.860351562 94 521 c 1
 78 465 85 437 110 414 c 1
 204 358 247 372 309 346 c 1
 446 287 449 140 420 92 c 1
 315 -67 71 9 15 98 c 1
 5 107 8 164 8 164 c 0
 10 237 l 1
 10 237 96 145 116 130 c 1
 262.904296875 26.947265625 350.096679688 59.2998046875 345 178 c 1
 339.379882812 236.1875 314 258 238 298 c 1
 170 336 114 308 32 388 c 1
 10 416 -3 467 14 531 c 1
 66.025390625 719.72265625 363.395507812 641.017578125 384 594 c 1
 394 576 388 481 388 481 c 1
EndSplineSet
Validated: 41
EndChar

StartChar: scaron
Encoding: 185 353 22
Width: 277
Flags: HW
LayerCount: 2
Fore
SplineSet
92 382 m 5
 109 388 162 388 181 383 c 5
 185 382 209 416 215 426 c 4
 217.572265625 430.287109375 233 453 236 461 c 5
 236 461 192 468 168 444 c 5
 136 412 l 5
 100 446 l 5
 84 466 39 461 39 461 c 5
 43 451 52.8583984375 433.92578125 55 430 c 4
 61 419 87.802734375 381.59765625 92 382 c 5
255 258 m 1
 240.691480647 278.751350784 89 424.521484375 91 281 c 1
 91 271 98 261 105 255 c 1
 125 236 160 215 175 207 c 1
 250 168 284 115 269 73 c 1
 216 -46 12.7861328125 5.939453125 6 43 c 1
 1 48 3 100 3 100 c 0
 5 141 l 1
 5 141 24 104 44 89 c 1
 125.50390625 8.037109375 187.677734375 46.51953125 183 104 c 1
 183 138 137 171 114 183 c 1
 86 200 46 211 28 230 c 1
 17 243 11 260 12 282 c 1
 21.2866148537 416.755322806 247.485249531 361.525851034 253 343 c 1
 258 336 255 258 255 258 c 1
EndSplineSet
Validated: 41
EndChar

StartChar: Z
Encoding: 90 90 23
Width: 457
Flags: HW
LayerCount: 2
Fore
SplineSet
35 648 m 5
 79 657 445 647 445 647 c 5
 146 109 l 5
 305 106 l 4
 305 106 436 97 449 131 c 5
 454 92 454 6 434 3 c 5
 390 -3 8 3 8 3 c 4
 317 564 l 5
 136 570 l 4
 136 570 48 574 19 533 c 5
 15.46484375 571 17 639 35 648 c 5
EndSplineSet
Validated: 33
EndChar

StartChar: Zcaron
Encoding: 174 381 24
Width: 457
Flags: HW
LayerCount: 2
Fore
SplineSet
182 656 m 1
 301 657 l 1
 305 656 330 705 336 715 c 0
 338.572265625 719.287109375 354 751 357 759 c 1
 357 759 309 763 285 739 c 1
 244 701 l 1
 191 741 l 1
 172 761 130 756 130 756 c 1
 134 746 143.858398438 728.92578125 146 725 c 0
 152 714 177.802734375 655.59765625 182 656 c 1
34 644 m 1
 78 653 444 643 444 643 c 1
 146 109 l 1
 305 106 l 0
 305 106 436 97 449 131 c 1
 454 92 454 6 434 3 c 1
 390 -3 8 3 8 3 c 0
 317 564 l 1
 136 570 l 0
 136 570 48 574 19 533 c 1
 15.46484375 571 16 635 34 644 c 1
EndSplineSet
Validated: 41
EndChar

StartChar: z
Encoding: 122 122 25
Width: 337
Flags: HW
LayerCount: 2
Fore
SplineSet
37 366 m 1
 81 375 308 366 308 366 c 1
 95 72 l 1
 242 72 l 0
 242 72 310 66 330 97 c 1
 335 58 333 6 313 3 c 1
 269 -3 4 0 4 0 c 0
 222 308 l 1
 105 306 l 0
 105 306 38 310 22 278 c 1
 18.46484375 316 19 357 37 366 c 1
EndSplineSet
Validated: 33
EndChar

StartChar: d
Encoding: 100 100 26
Width: 409
Flags: HW
LayerCount: 2
Fore
SplineSet
284.379882812 324 m 13
 275.379882812 95 l 5
 274.379882812 81 201.379882812 61 201.379882812 61 c 5
 74.3798828125 47 45.3798828125 331 207.379882812 342 c 5
 233.379882812 345 260.731445312 342.080078125 284.379882812 324 c 13
276.379882812 49 m 1028
285.379882812 13 m 5
 301.560546875 -6.2119140625 402.379882812 -12 403.379882812 67 c 5
 365.379882812 44 368.379882812 142 368.379882812 142 c 5
 367.379882812 663 l 5
 367.379882812 663 293.379882812 601 296.379882812 591 c 4
 296.379882812 586 l 5
 288 361 l 4
 -138.620117188 503 -32.6201171875 -174 276.379882812 49 c 5
 275.379882812 32 274.379882812 26 285.379882812 13 c 5
EndSplineSet
Validated: 41
EndChar

StartChar: zcaron
Encoding: 190 382 27
Width: 341
Flags: HW
LayerCount: 2
Fore
SplineSet
127 379 m 5
 216 380 l 5
 220 379 244 413 250 423 c 4
 252.572265625 427.287109375 268 450 271 458 c 5
 271 458 227 465 203 441 c 5
 171 409 l 5
 135 443 l 5
 119 463 74 458 74 458 c 5
 78 448 87.8583984375 430.92578125 90 427 c 4
 96 416 122.802734375 378.59765625 127 379 c 5
37 366 m 1
 81 375 308 366 308 366 c 1
 95 72 l 1
 242 72 l 0
 242 72 310 66 330 97 c 1
 335 58 333 6 313 3 c 1
 269 -3 4 0 4 0 c 0
 222 308 l 1
 105 306 l 0
 105 306 38 310 22 278 c 1
 18.46484375 316 19 357 37 366 c 1
EndSplineSet
Validated: 41
EndChar

StartChar: D
Encoding: 68 68 28
Width: 475
Flags: HW
LayerCount: 2
Fore
SplineSet
113 586 m 5
 450.30078125 607.078125 447.08984375 23.583984375 115 62 c 13
 113 586 l 5
2 648 m 5
 18 630 17 591 17 591 c 13
 23 49 l 5
 23 49 23 9 2 -2 c 4
 1.990234375 -2.0048828125 234.048828125 1.771484375 244 4 c 4
 561 75 537 577 213 633 c 5
 150 642 76.1845703125 644.194335938 2 648 c 5
EndSplineSet
Validated: 41
EndChar

StartChar: Dcroat
Encoding: 208 272 29
Width: 509
Flags: HW
LayerCount: 2
Fore
SplineSet
5 373 m 1
 5 303 l 1
 12 311 34 312 34 312 c 1
 168 312 l 1
 168 312 194 312 202 303 c 1
 201 372 l 1
 196 363 169 362 169 362 c 1
 34 362 l 1
 34 362 11.833984375 363.711914062 5 373 c 1
148 588 m 1
 485.30078125 609.078125 482.08984375 25.583984375 150 64 c 9
 148 588 l 1
37 650 m 1
 53 632 52 593 52 593 c 9
 58 51 l 1
 58 51 58 11 37 0 c 0
 36.990234375 -0.0048828125 269.048828125 3.771484375 279 6 c 0
 596 77 572 579 248 635 c 1
 185 644 111.184570312 646.194335938 37 650 c 1
EndSplineSet
Validated: 37
EndChar

StartChar: dcroat
Encoding: 240 273 30
Width: 427
Flags: HW
LayerCount: 2
Fore
SplineSet
265 485 m 5
 239 485 217 438 217 438 c 5
 373 435 l 5
 397 436 421 483 421 483 c 5
 265 485 l 5
284.379882812 324 m 9
 275.379882812 95 l 1
 274.379882812 81 201.379882812 61 201.379882812 61 c 1
 74.3798828125 47 45.3798828125 331 207.379882812 342 c 1
 233.379882812 345 260.731445312 342.080078125 284.379882812 324 c 9
276.379882812 49 m 1024
285.379882812 13 m 1
 301.560546875 -6.2119140625 402.379882812 -12 403.379882812 67 c 1
 365.379882812 44 368.379882812 142 368.379882812 142 c 1
 367.379882812 663 l 1
 367.379882812 663 293.379882812 601 296.379882812 591 c 0
 296.379882812 586 l 1
 288 361 l 0
 -138.620117188 503 -32.6201171875 -174 276.379882812 49 c 1
 275.379882812 32 274.379882812 26 285.379882812 13 c 1
EndSplineSet
Validated: 37
EndChar

StartChar: Scedilla
Encoding: 170 350 32
Width: 371
Flags: HW
LayerCount: 2
Fore
SplineSet
125 240 m 5
 153.98828125 359.076171875 221.493164062 385.529296875 233 240 c 13
 125 240 l 5
117 216 m 5
 349 217 l 5
 345.364257812 291.758789062 307 353 236 365 c 5
 17 421 -112 -29 234 2 c 5
 309 12 341 57 353 131 c 5
 281.857421875 38.814453125 65.828125 -26.19921875 117 216 c 5
EndSplineSet
EndChar
